# xmcd
#
# Track frame offsets: 
#        150
#        16104
#        37395
#        49810
#        64464
#        84268
#        92869
#        111936
#        128906
#        145022
#        167409
#        183220
#        184038
#        185407
#        186760
#        188079
#        189415
#
# Disc length: 2766 seconds
#
# Revision: 1
# Processed by: cddbd v1.5.2PL0 Copyright (c) Steve Scherf et al.
# Submitted via: ExactAudioCopyFreeDBPlugin 1.0
#
DISCID=e70acc11
DTITLE=Big Sam's Funky Nation - King Of The Party
DYEAR=2010
DGENRE=Blues
TTITLE0=King Of The Party
TTITLE1=Krunked Up
TTITLE2=Rage On!
TTITLE3=Straight To It
TTITLE4=Rock Yo Soul
TTITLE5=Take 5
TTITLE6=Hard To Handle
TTITLE7=Big Ole Booty
TTITLE8=See Me Dance
TTITLE9=Work It
TTITLE10=Dance Floor
TTITLE11=Silent Track
TTITLE12=Silent Track
TTITLE13=Silent Track
TTITLE14=Silent Track
TTITLE15=Silent Track
TTITLE16=Hidden Track
EXTD=
EXTT0=
EXTT1=
EXTT2=
EXTT3=
EXTT4=
EXTT5=
EXTT6=
EXTT7=
EXTT8=
EXTT9=
EXTT10=
EXTT11=
EXTT12=
EXTT13=
EXTT14=
EXTT15=
EXTT16=
PLAYORDER=
